<svg width="56" height="25" viewBox="0 0 56 25" fill="none" xmlns="http://www.w3.org/2000/svg">
<g clip-path="url(#clip0)">
<path d="M25.2215 11.3518C25.2196 11.3259 25.2167 11.299 25.2138 11.273C25.1935 11.1548 25.1693 11.0375 25.1529 10.9193C24.361 5.22608 19.8454 0.89489 14.097 0.316244C8.28282 -0.26913 2.8216 3.36807 1.10337 8.97094C-1.17472 16.3972 3.93454 24.0696 11.7348 24.7616C16.7879 25.2105 20.7108 23.1516 23.4607 18.9213C24.4818 17.3527 24.9924 15.5936 25.2215 13.7481C25.2264 13.6962 25.2302 13.6443 25.2351 13.5915C25.2399 13.5386 25.2447 13.4848 25.2486 13.4309C25.2505 13.0032 25.2525 12.5764 25.2544 12.1496C25.2438 11.8834 25.2322 11.6181 25.2215 11.3518ZM20.1935 19.2068C18.8137 20.6592 17.1747 21.6694 15.2002 22.1087C13.921 22.4288 12.633 22.4941 11.3354 22.2327C9.90534 22.077 8.62609 21.5204 7.4445 20.7399C3.31184 18.0092 1.85274 12.5976 4.038 8.21255C4.20431 7.87901 4.31067 7.87324 4.60365 8.08086C6.18169 9.20259 7.77809 10.2984 9.36579 11.4066C9.50696 11.5047 9.63653 11.621 9.77093 11.7296C10.6421 12.2467 11.4447 12.8629 12.2763 13.4377C14.0738 14.6795 15.8616 15.9358 17.6514 17.1883C17.7607 17.2642 17.8603 17.3527 17.9637 17.4353C18.6996 17.9371 19.4335 18.4407 20.1712 18.9377C20.3085 19.03 20.3018 19.0934 20.1935 19.2068ZM22.7249 13.43C22.7162 13.5376 22.7075 13.6453 22.6978 13.7529C22.6882 13.7962 22.6775 13.8404 22.6679 13.8846C22.5895 15.0313 22.1854 16.0771 21.6787 17.0931C21.6004 17.2488 21.5259 17.2239 21.406 17.1393C19.4673 15.7744 17.5257 14.4133 15.5861 13.0522C14.5311 12.4063 13.5545 11.6498 12.5354 10.9529C12.0838 10.6454 11.6197 10.3532 11.1836 10.0225C11.1111 9.96771 11.0395 9.91196 10.968 9.85429C10.9332 9.82545 10.8974 9.79662 10.8626 9.76682C10.8365 9.74567 10.8113 9.72356 10.7862 9.70146C10.7814 9.69761 10.7775 9.69377 10.7727 9.68992C10.7678 9.68608 10.763 9.68223 10.7582 9.67839C10.4691 9.54094 10.2148 9.3535 9.97399 9.14492C9.9092 9.14396 9.85989 9.11993 9.84152 9.05168C9.81638 9.0536 9.79704 9.04303 9.78447 9.02188C9.75643 9.0017 9.72839 8.98055 9.70035 8.96037C9.41897 8.83253 9.22268 8.59511 8.98095 8.41536C8.73632 8.43843 8.63962 8.22024 8.47718 8.10874L8.47041 8.10393C8.4472 8.08855 8.424 8.07317 8.39982 8.0578L8.36598 8.03857C8.307 7.99916 8.24802 7.95975 8.18903 7.91938C7.38261 7.35996 6.58103 6.79477 5.76881 6.24496C5.55802 6.10174 5.50677 6.00754 5.71176 5.80569C8.61352 2.94514 12.0616 1.96375 15.9429 3.21716C19.8531 4.48019 22.0848 7.30133 22.7172 11.3518C22.7375 11.4816 22.7268 11.6162 22.7307 11.7488C22.8496 12.3092 22.8332 12.8706 22.7249 13.43Z" fill="#919090"/>
<path d="M25.2214 13.7481C25.2263 13.6962 25.2301 13.6443 25.235 13.5914C25.3036 13.651 25.2949 13.7029 25.2214 13.7481Z" fill="#919090"/>
<path d="M25.2494 11.3278C25.2494 11.3317 25.231 11.3432 25.2214 11.3519C25.2194 11.3259 25.2165 11.299 25.2136 11.273C25.2262 11.2913 25.2397 11.3086 25.2494 11.3278Z" fill="#919090"/>
<path d="M17.6513 17.1883C15.8616 15.9358 14.0737 14.6795 12.2762 13.4376C11.4446 12.8628 10.6421 12.2467 9.77087 11.7296C9.4015 12.5822 9.05534 13.4415 8.76429 14.3248C8.61829 14.768 8.70144 15.114 9.00796 15.4533C9.58038 16.0867 10.1983 16.6692 10.8442 17.2277C11.317 17.6352 11.3267 17.6794 11.055 18.2216C10.5144 19.301 10.4158 20.3708 11.0637 21.4483C11.2058 21.6857 11.3054 21.951 11.3354 22.2327C12.633 22.4941 13.9209 22.4288 15.2002 22.1087C15.1025 21.5733 15.2572 21.2003 15.7571 20.886C17.0219 20.0882 17.8418 18.9732 17.9637 17.4353C17.8602 17.3526 17.7606 17.2642 17.6513 17.1883ZM11.8082 16.4683C11.1855 15.9387 10.8132 15.2457 10.2659 14.7064C10.1789 14.6209 10.2234 14.5421 10.263 14.4556C10.44 14.0701 10.6121 13.6837 10.82 13.2233C11.3315 14.2941 12.019 15.2236 11.8082 16.4683Z" fill="#919090"/>
<path d="M15.5862 13.0522C14.5313 12.4063 13.5547 11.6498 12.5355 10.9529C12.084 10.6454 11.6198 10.3532 11.1838 10.0225C11.1112 9.96771 11.0397 9.911 10.9681 9.85429C10.9333 9.82545 10.8975 9.79662 10.8627 9.76682C10.8366 9.74567 10.8115 9.72357 10.7863 9.70146C10.7815 9.69761 10.7776 9.69377 10.7728 9.68992C10.768 9.68608 10.7631 9.68127 10.7583 9.67743C11.4555 8.60088 11.4584 8.1395 10.709 7.1014C10.358 6.61406 10.1037 6.11328 10.0786 5.49714C10.0621 5.07421 9.78944 4.96464 9.45198 5.20878C9.16964 5.41256 9.06618 5.70765 9.05554 6.04311C9.04104 6.56504 9.25086 7.02546 9.43748 7.49741C9.63667 7.99916 9.93641 8.47111 9.95962 9.03342C9.91998 9.03919 9.8813 9.04495 9.84165 9.05168C9.81651 9.05361 9.79718 9.04303 9.78461 9.02189C9.75656 9.0017 9.72852 8.98055 9.70048 8.96037C9.41911 8.83253 9.22282 8.59511 8.98109 8.41536C8.99656 8.22312 8.87182 8.11258 8.74129 8.00493C8.02866 7.19367 7.84011 6.25169 8.12439 5.2357C8.30037 4.60803 9.20155 4.27161 9.82715 4.56862C10.1501 4.72145 10.3454 4.62725 10.5021 4.35523C10.7506 3.92365 11.1257 3.68239 11.6092 3.57281C12.6535 3.33731 13.6523 3.40748 14.5893 3.9669C14.8542 4.1255 15.036 4.32351 15.0989 4.64167C15.1472 4.88966 14.8658 4.92907 14.8513 5.09055C14.803 5.66151 14.48 6.26034 15.0147 6.7842C15.1723 6.93895 15.1917 7.11966 14.9142 7.19944C14.7633 7.24269 14.743 7.35323 14.772 7.48203C14.8417 7.77712 14.7343 7.9982 14.4984 8.17602C14.4394 8.22024 14.3949 8.29714 14.3679 8.36827C14.1619 8.90173 13.9937 9.0142 13.4435 8.84983C13.1292 8.75659 13.0432 8.81523 12.9764 9.13146C12.8972 9.50633 12.9764 9.812 13.1872 10.1061C13.4715 10.5031 13.8428 10.8011 14.2663 11.0414C14.7092 11.2932 15.1366 11.5672 15.4682 11.9603C15.7854 12.3361 15.8134 12.636 15.5862 13.0522Z" fill="#919090"/>
<path d="M9.97402 9.14492C9.90924 9.14396 9.85992 9.11992 9.84155 9.05168C9.8812 9.04495 9.91988 9.03918 9.95952 9.03342C9.96435 9.0709 9.96919 9.10839 9.97402 9.14492Z" fill="#919090"/>
<path d="M8.47049 8.10396C8.44729 8.08858 8.42408 8.07321 8.3999 8.05783C8.45115 8.03187 8.47243 8.05014 8.47049 8.10396Z" fill="#D5D6D7"/>
<path d="M24.4092 12.711C24.4034 12.7215 24.3967 12.7331 24.3909 12.7436C24.3967 12.7331 24.4034 12.7215 24.4092 12.711Z" fill="#919090"/>
</g>
<g clip-path="url(#clip1)">
<path d="M42.624 11.7968C42.9017 11.7968 43.1269 11.5716 43.1269 11.2939C43.1269 11.0162 42.9017 10.791 42.624 10.791C42.3462 10.791 42.1211 11.0162 42.1211 11.2939C42.1211 11.5716 42.3462 11.7968 42.624 11.7968Z" fill="#919090"/>
<path d="M43 3.66211C38.1268 3.66211 34.1621 7.62676 34.1621 12.5C34.1621 17.3732 38.1268 21.3379 43 21.3379C47.8732 21.3379 51.8379 17.3732 51.8379 12.5C51.8379 7.62676 47.8732 3.66211 43 3.66211ZM39.5332 15.918C39.5332 16.3225 39.2053 16.6504 38.8008 16.6504C38.3963 16.6504 38.0684 16.3225 38.0684 15.918V10.791H37.5484C37.1439 10.791 36.816 10.4631 36.816 10.0586C36.816 9.6541 37.1439 9.32617 37.5484 9.32617H38.8008C39.2053 9.32617 39.5332 9.6541 39.5332 10.0586V15.918ZM42.624 16.6504C41.2858 16.6504 40.1972 15.5617 40.1972 14.2236C40.1972 13.5055 40.5109 12.8596 41.0082 12.4149C40.7866 12.0965 40.6562 11.7103 40.6562 11.2939C40.6562 10.2089 41.539 9.32617 42.624 9.32617C43.709 9.32617 44.5917 10.2089 44.5917 11.2939C44.5917 11.7103 44.4613 12.0966 44.2398 12.4149C44.7371 12.8596 45.0508 13.5055 45.0508 14.2236C45.0508 15.5617 43.9621 16.6504 42.624 16.6504ZM48.8594 11.2619H48.1443V12.0117C48.1443 12.4162 47.8164 12.7441 47.4119 12.7441C47.0074 12.7441 46.6795 12.4162 46.6795 12.0117V11.2619H45.9297C45.5252 11.2619 45.1973 10.934 45.1973 10.5295C45.1973 10.125 45.5252 9.79707 45.9297 9.79707H46.6795V9.08203C46.6795 8.67754 47.0074 8.34961 47.4119 8.34961C47.8164 8.34961 48.1443 8.67754 48.1443 9.08203V9.79707H48.8594C49.2639 9.79707 49.5918 10.125 49.5918 10.5295C49.5918 10.934 49.2639 11.2619 48.8594 11.2619Z" fill="#919090"/>
<path d="M42.6241 15.1855C43.1554 15.1855 43.586 14.7548 43.586 14.2236C43.586 13.6923 43.1554 13.2616 42.6241 13.2616C42.0928 13.2616 41.6621 13.6923 41.6621 14.2236C41.6621 14.7548 42.0928 15.1855 42.6241 15.1855Z" fill="#919090"/>
<path d="M51.8389 3.66113C49.4779 1.30024 46.3389 0 43 0C39.6611 0 36.5221 1.30024 34.1611 3.66113C31.8002 6.02212 30.5 9.16113 30.5 12.5C30.5 15.8389 31.8002 18.9779 34.1611 21.3389C36.5221 23.6998 39.6611 25 43 25C46.3389 25 49.4779 23.6998 51.8389 21.3389C54.1998 18.9779 55.5 15.8389 55.5 12.5C55.5 9.16113 54.1998 6.02212 51.8389 3.66113ZM43 22.8027C37.319 22.8027 32.6973 18.181 32.6973 12.5C32.6973 6.81904 37.319 2.19727 43 2.19727C48.681 2.19727 53.3027 6.81904 53.3027 12.5C53.3027 18.181 48.681 22.8027 43 22.8027Z" fill="#919090"/>
</g>
<defs>
<clipPath id="clip0">
<rect width="25" height="25" fill="white" transform="translate(0.5)"/>
</clipPath>
<clipPath id="clip1">
<rect width="25" height="25" fill="white" transform="translate(30.5)"/>
</clipPath>
</defs>
</svg>
